<svg width="114" height="21" viewBox="0 0 114 21" fill="none" xmlns="http://www.w3.org/2000/svg">
<path d="M10.7727 6.99998H9.36364C9.2803 6.59468 9.13447 6.23862 8.92614 5.9318C8.72159 5.62498 8.47159 5.36741 8.17614 5.15908C7.88447 4.94695 7.56061 4.78786 7.20455 4.6818C6.84849 4.57574 6.47727 4.52271 6.09091 4.52271C5.38636 4.52271 4.74811 4.70074 4.17614 5.0568C3.60795 5.41286 3.1553 5.93748 2.81818 6.63067C2.48485 7.32385 2.31818 8.17423 2.31818 9.1818C2.31818 10.1894 2.48485 11.0398 2.81818 11.7329C3.1553 12.4261 3.60795 12.9507 4.17614 13.3068C4.74811 13.6629 5.38636 13.8409 6.09091 13.8409C6.47727 13.8409 6.84849 13.7879 7.20455 13.6818C7.56061 13.5757 7.88447 13.4185 8.17614 13.2102C8.47159 12.9981 8.72159 12.7386 8.92614 12.4318C9.13447 12.1212 9.2803 11.7651 9.36364 11.3636H10.7727C10.6667 11.9583 10.4735 12.4905 10.1932 12.9602C9.91288 13.4299 9.56439 13.8295 9.14773 14.1591C8.73106 14.4848 8.26326 14.7329 7.74432 14.9034C7.22917 15.0738 6.67803 15.1591 6.09091 15.1591C5.09849 15.1591 4.21591 14.9167 3.44318 14.4318C2.67045 13.947 2.0625 13.2576 1.61932 12.3636C1.17614 11.4697 0.954545 10.4091 0.954545 9.1818C0.954545 7.95453 1.17614 6.89392 1.61932 5.99998C2.0625 5.10605 2.67045 4.41665 3.44318 3.9318C4.21591 3.44695 5.09849 3.20453 6.09091 3.20453C6.67803 3.20453 7.22917 3.28976 7.74432 3.46021C8.26326 3.63067 8.73106 3.88067 9.14773 4.21021C9.56439 4.53597 9.91288 4.9337 10.1932 5.40339C10.4735 5.8693 10.6667 6.4015 10.7727 6.99998ZM13.0497 15V3.36362H16.9815C17.8906 3.36362 18.6368 3.51892 19.2202 3.82953C19.8035 4.13635 20.2353 4.5587 20.5156 5.09658C20.7959 5.63445 20.9361 6.2462 20.9361 6.9318C20.9361 7.61741 20.7959 8.22536 20.5156 8.75567C20.2353 9.28597 19.8054 9.70264 19.2259 10.0057C18.6463 10.3049 17.9058 10.4545 17.0043 10.4545H13.8224V9.1818H16.9588C17.58 9.1818 18.08 9.09089 18.4588 8.90908C18.8414 8.72726 19.1179 8.46968 19.2884 8.13635C19.4626 7.79923 19.5497 7.39771 19.5497 6.9318C19.5497 6.46589 19.4626 6.0587 19.2884 5.71021C19.1141 5.36173 18.8357 5.09279 18.4531 4.90339C18.0705 4.71021 17.5649 4.61362 16.9361 4.61362H14.4588V15H13.0497ZM18.527 9.77271L21.3906 15H19.7543L16.9361 9.77271H18.527ZM23.2841 15V3.36362H30.3068V4.61362H24.6932V8.54544H29.9432V9.79544H24.6932V13.75H30.3977V15H23.2841ZM36.4375 15H32.8466V3.36362H36.5966C37.7254 3.36362 38.6913 3.59658 39.4943 4.06248C40.2973 4.52461 40.9129 5.18938 41.3409 6.0568C41.7689 6.92044 41.983 7.95453 41.983 9.15908C41.983 10.3712 41.767 11.4148 41.3352 12.2898C40.9034 13.161 40.2746 13.8314 39.4489 14.3011C38.6231 14.767 37.6193 15 36.4375 15ZM34.2557 13.75H36.3466C37.3087 13.75 38.1061 13.5644 38.7386 13.1932C39.3712 12.822 39.8428 12.2935 40.1534 11.6079C40.464 10.9223 40.6193 10.106 40.6193 9.15908C40.6193 8.21968 40.4659 7.41097 40.1591 6.73294C39.8523 6.05112 39.3939 5.52839 38.7841 5.16476C38.1742 4.79733 37.4148 4.61362 36.5057 4.61362H34.2557V13.75ZM45.7557 3.36362V15H44.3466V3.36362H45.7557ZM47.9446 4.61362V3.36362H56.6719V4.61362H53.0128V15H51.6037V4.61362H47.9446Z" fill="#959595"/>
<path d="M58.4489 15V3.36362H63.0398C63.9223 3.36362 64.6742 3.53218 65.2955 3.8693C65.9167 4.20264 66.3902 4.66665 66.7159 5.26135C67.0455 5.85226 67.2102 6.53408 67.2102 7.3068C67.2102 8.07953 67.0436 8.76135 66.7102 9.35226C66.3769 9.94317 65.8939 10.4034 65.2614 10.7329C64.6326 11.0625 63.8712 11.2273 62.9773 11.2273H60.0511V9.25567H62.5795C63.053 9.25567 63.4432 9.17423 63.75 9.01135C64.0606 8.84468 64.2917 8.61551 64.4432 8.32385C64.5985 8.02839 64.6761 7.68938 64.6761 7.3068C64.6761 6.92044 64.5985 6.58332 64.4432 6.29544C64.2917 6.00377 64.0606 5.77839 63.75 5.6193C63.4394 5.45642 63.0455 5.37498 62.5682 5.37498H60.9091V15H58.4489ZM69.4702 15H66.8338L70.8509 3.36362H74.0213L78.0327 15H75.3963L72.4815 6.02271H72.3906L69.4702 15ZM69.3054 10.4261H75.5327V12.3466H69.3054V10.4261ZM77.5639 3.36362H80.3196L82.973 8.37498H83.0866L85.7401 3.36362H88.4957L84.2514 10.8863V15H81.8082V10.8863L77.5639 3.36362Z" fill="white"/>
<path fill-rule="evenodd" clip-rule="evenodd" d="M98.2028 13.8617L98.1995 13.8662L98.1963 13.8707C98.0183 14.1227 97.6196 14.1968 97.3077 13.9765C97.0581 13.8002 96.9831 13.4074 97.1957 13.097C97.5128 12.6927 97.7431 12.2201 97.8944 11.7581C98.0519 11.2771 98.1251 10.7305 98.1223 10.1944C98.1194 9.65838 98.0404 9.11262 97.8778 8.63333C97.7216 8.17295 97.4862 7.7028 97.1648 7.30194C96.9489 6.99377 97.0198 6.60017 97.2675 6.42122C97.577 6.19769 97.9765 6.26749 98.1571 6.51761L98.1604 6.5221L98.1637 6.5265C98.5638 7.05405 98.8919 7.64018 99.088 8.21523C99.2944 8.89171 99.4259 9.54608 99.4293 10.1875C99.4329 10.8624 99.3684 11.5013 99.1207 12.1302C98.851 12.8151 98.5898 13.34 98.2028 13.8617ZM101.095 15.1145L101.103 15.1034L101.11 15.0919C101.997 13.6713 102.509 11.957 102.499 10.1711C102.489 8.3857 101.96 6.67737 101.059 5.26646C100.863 4.95669 100.951 4.59045 101.28 4.35261C101.502 4.19288 101.917 4.24944 102.163 4.57952C103.181 6.19416 103.795 8.146 103.806 10.1642C103.817 12.2512 103.224 14.1397 102.222 15.7661C101.991 16.085 101.636 16.1743 101.33 15.9936C100.999 15.7507 100.938 15.337 101.095 15.1145ZM106.286 2.45724L106.295 2.47449L106.305 2.49097C107.684 4.73919 108.45 7.33243 108.465 10.1394C108.48 12.945 107.742 15.5451 106.388 17.8072C106.181 18.1409 105.83 18.235 105.475 18.0697C105.152 17.859 105.065 17.5098 105.234 17.1571C106.385 15.1125 107.101 12.703 107.088 10.1467C107.074 7.60176 106.408 5.19618 105.157 3.15136C104.988 2.80221 105.071 2.45448 105.391 2.24137C105.776 2.05725 106.152 2.1922 106.286 2.45724ZM110.369 0.317663L110.375 0.329447L110.382 0.340883C112.053 3.22941 113.035 6.53184 113.054 10.1149C113.073 13.6943 112.128 17.0039 110.491 19.9079C110.283 20.2378 109.934 20.3302 109.581 20.1656C109.259 19.9556 109.171 19.608 109.338 19.2564C110.915 16.5648 111.764 13.4463 111.747 10.1219C111.729 6.78887 110.772 3.68251 109.243 1.0174C109.051 0.628355 109.186 0.247321 109.454 0.111831C109.846 -0.0870443 110.232 0.0479557 110.369 0.317663Z" fill="white"/>
</svg>
